HIERARCHY
ROOT Hips
{
  OFFSET 3.13124 94.3669 -3.18751
  CHANNELS  6 Xposition Yposition Zposition Zrotation Xrotation Yrotation
  JOINT LeftUpLeg
  {
    OFFSET 8.64259 1.95398 -2.38835
    CHANNELS 3 Zrotation Xrotation Yrotation
    JOINT LeftLeg
    {
      OFFSET 43.7702 0 0
      CHANNELS 3 Zrotation Xrotation Yrotation
      JOINT LeftFoot
      {
        OFFSET 40.6238 0 0
        CHANNELS 3 Zrotation Xrotation Yrotation
        JOINT LeftToeBase
        {
          OFFSET 12.7242 0 0
          CHANNELS 3 Zrotation Xrotation Yrotation
          End Site
          {
            OFFSET 0 0 0
          }
        }
      }
    }
  }
  JOINT RightUpLeg
  {
    OFFSET -8.2249 1.95398 -2.59336
    CHANNELS 3 Zrotation Xrotation Yrotation
    JOINT RightLeg
    {
      OFFSET 43.5653 0 0
      CHANNELS 3 Zrotation Xrotation Yrotation
      JOINT RightFoot
      {
        OFFSET 40.6238 0 0
        CHANNELS 3 Zrotation Xrotation Yrotation
        JOINT RightToeBase
        {
          OFFSET 12.7242 0 0
          CHANNELS 3 Zrotation Xrotation Yrotation
          End Site
          {
            OFFSET 0 0 0
          }
        }
      }
    }
  }
  JOINT Spine
  {
    OFFSET 0.165834 0.87714 6.61349
    CHANNELS 3 Zrotation Xrotation Yrotation
    JOINT Spine1
    {
      OFFSET 7.38962 1.71661e-005 0
      CHANNELS 3 Zrotation Xrotation Yrotation
      JOINT Spine2
      {
        OFFSET 11.9445 1.14441e-005 0
        CHANNELS 3 Zrotation Xrotation Yrotation
        JOINT Spine3
        {
          OFFSET 14.7254 4.19617e-005 0
          CHANNELS 3 Zrotation Xrotation Yrotation
          JOINT Spine4
          {
            OFFSET 10.9679 0 0
            CHANNELS 3 Zrotation Xrotation Yrotation
            JOINT RightShoulder
            {
              OFFSET 2.46616 -1.6653 3.69651
              CHANNELS 3 Zrotation Xrotation Yrotation
              JOINT RightArm
              {
                OFFSET 13.0012 0 0
                CHANNELS 3 Zrotation Xrotation Yrotation
                JOINT RightForeArm
                {
                  OFFSET 28.7848 1.52588e-005 0
                  CHANNELS 3 Zrotation Xrotation Yrotation
                  JOINT RightHand
                  {
                    OFFSET 26.5688 1.52588e-005 0
                    CHANNELS 3 Zrotation Xrotation Yrotation
                    End Site
                    {
                      OFFSET 0 0 0
                    }
                  }
                }
              }
            }
            JOINT LeftShoulder
            {
              OFFSET 2.38034 -1.29275 -3.75231
              CHANNELS 3 Zrotation Xrotation Yrotation
              JOINT LeftArm
              {
                OFFSET 16.3182 6.10352e-005 0
                CHANNELS 3 Zrotation Xrotation Yrotation
                JOINT LeftForeArm
                {
                  OFFSET 27.0901 0 0
                  CHANNELS 3 Zrotation Xrotation Yrotation
                  JOINT LeftHand
                  {
                    OFFSET 24.5451 1.52588e-005 0
                    CHANNELS 3 Zrotation Xrotation Yrotation
                    End Site
                    {
                      OFFSET 0 0 0
                    }
                  }
                }
              }
            }
            JOINT Neck
            {
              OFFSET 5.0226 -0.0266342 0
              CHANNELS 3 Zrotation Xrotation Yrotation
              JOINT Head
              {
                OFFSET 6.69363 2.86102e-005 0
                CHANNELS 3 Zrotation Xrotation Yrotation
                End Site
                {
                  OFFSET 0 0 0
                }
              }
            }
          }
        }
      }
    }
  }
}
MOTION
Frames:	15
Frame Time:	0.0333333
-1.12354 92.8606 -58.145 -88.8923 -21.6033 -96.2392 -171.166 12.4883 102.367 -6.99031 4.46345 2.87326 28.795 -7.26761 -9.16789 28.7808 6.09083e-006 7.53239e-006 177.245 6.71369 86.8219 -21.0212 3.4336 0.117557 72.6155 -12.9864 -6.17247 28.7808 1.51774e-005 2.47067e-005 0.39499 6.01012 -91.2703 14.8229 0.467681 2.34923 3.15001 0.570568 2.32652 -19.3682 -0.25966 2.3802 0.644485 -0.259657 2.38021 95.6851 -49.2258 -92.1603 12.99 21.9808 21.0394 31.7353 35.5351 -52.9099 -5.20197 -0.629443 9.8687 -93.3824 -60.9447 76.3666 3.25429 -25.4705 -15.078 1.72144 -37.4387 -2.67641 19.3885 -2.44794 -16.578 -3.05553 28.0395 13.9171 25.361 26.2168 2.08484 
-0.901609 92.8311 -57.7585 -88.7403 -23.4331 -96.0824 -171.24 12.9936 102.595 -6.99579 5.02903 3.09273 28.2317 -7.3921 -9.41035 28.7808 6.09083e-006 7.53239e-006 177.234 6.93244 86.7411 -21.2227 5.08087 0.212868 72.5272 -12.9766 -6.19451 28.7808 1.51774e-005 2.47067e-005 0.449407 6.03183 -91.2898 14.7744 0.529949 2.35679 3.1015 0.633116 2.33119 -19.4165 -0.202666 2.40715 0.596117 -0.202683 2.40714 95.3876 -49.3276 -92.6116 13.2439 21.9686 20.6639 32.6326 35.5634 -53.8212 -5.25733 -0.620019 9.48002 -94.3088 -62.2537 75.4467 2.64743 -25.1036 -14.5911 1.71488 -38.0451 -2.66779 20.3929 -2.60071 -16.8437 -3.28509 27.1747 13.3943 27.7894 25.1628 0.900779 
-0.647191 92.7623 -57.3184 -88.6642 -25.335 -95.9431 -171.284 13.3928 102.917 -7.16268 5.41444 3.35081 27.5464 -7.3963 -9.53085 28.7808 6.09083e-006 7.53239e-006 177.261 7.01211 86.6737 -21.3138 7.54812 0.363795 73.3354 -11.9222 -5.63466 28.7808 1.51774e-005 2.47067e-005 0.48076 6.0605 -91.2831 14.7144 0.572957 2.37007 3.04147 0.676663 2.34274 -19.4763 -0.165515 2.43178 0.536312 -0.165536 2.43179 94.8808 -49.4341 -93.3871 13.9414 21.7686 20.4639 32.7482 34.8049 -54.458 -4.94449 -0.57519 9.381 -94.8954 -63.4185 74.9549 1.70163 -24.5998 -14.1145 1.74573 -35.2019 -2.70803 22.9921 -1.67442 -11.4242 -3.51578 26.3341 13.078 29.623 24.0744 -0.286081 
-0.372904 92.6872 -56.797 -88.7701 -27.1483 -95.897 -171.205 13.5332 103.28 -7.39649 5.50135 3.53766 27.0494 -6.78322 -8.94703 28.7808 6.09083e-006 7.53239e-006 177.19 7.06468 86.4831 -21.7559 9.32758 0.470522 73.6043 -11.7237 -5.53212 28.7808 1.51774e-005 2.47067e-005 0.530593 6.10087 -91.3421 14.6282 0.650649 2.34365 2.95539 0.753104 2.31294 -19.5628 -0.0834663 2.42969 0.449864 -0.0834758 2.42968 94.4547 -49.3109 -94.0677 15.4213 21.1411 19.8005 31.6818 33.7868 -54.0779 -5.10172 -0.534137 7.88854 -95.345 -64.5715 74.6485 -0.050752 -23.4462 -11.8652 1.80988 -29.7098 -2.78793 23.6385 -1.81822 -11.8075 -3.96616 25.5096 13.1705 30.4625 23.0719 -1.14083 
-0.0927166 92.5459 -56.2218 -88.8737 -29.0936 -95.7384 -171.144 13.7231 103.758 -7.72776 5.88257 3.7884 26.176 -6.40662 -8.67693 28.7808 6.09083e-006 7.53239e-006 177.169 7.03414 86.3764 -22.148 11.2105 0.58831 74.3074 -11.127 -5.2084 28.7808 1.51774e-005 2.47067e-005 0.571156 6.14765 -91.3777 14.5311 0.716765 2.35477 2.85822 0.819632 2.32111 -19.6598 -0.0236774 2.46026 0.35284 -0.0236962 2.46026 93.8841 -49.9419 -94.8565 15.9888 20.9977 19.1315 30.6695 32.2847 -54.1349 -3.84409 -0.443783 9.65714 -95.7917 -65.4156 74.2844 -1.84951 -22.1997 -8.6469 1.84183 -27.1096 -2.8265 24.0223 -2.98066 -16.8223 -3.88293 24.9293 12.5199 30.4765 22.4393 -1.60774 
0.238451 92.2689 -55.5379 -88.9567 -31.1335 -95.3754 -170.912 13.887 104.335 -8.12985 6.7684 3.93188 28.0789 -5.35698 -7.18935 28.7808 6.09083e-006 7.53239e-006 177.189 7.25464 86.4132 -23.118 13.3487 0.723234 75.358 -10.3816 -4.79994 28.7808 1.51774e-005 2.47067e-005 0.616728 6.17137 -91.5372 14.4771 0.771079 2.31941 2.8044 0.872388 2.28325 -19.7142 0.0385948 2.44386 0.298458 0.0385694 2.44386 93.1044 -50.395 -95.9817 16.3346 20.9982 18.7233 30.2945 30.8272 -54.8839 -2.29995 -0.295168 12.9352 -96.4691 -66.2095 73.6218 -2.9034 -21.3366 -5.46548 1.84952 -26.4977 -2.83564 21.3928 -2.9196 -17.7497 -4.39774 24.3866 12.2877 30.5415 21.8506 -2.16705 
0.560613 92.157 -54.8335 -89.1424 -33.2808 -95.1866 -170.877 14.1031 104.801 -8.36936 7.05517 4.19854 27.3058 -5.26965 -7.16976 28.7808 6.09083e-006 7.53239e-006 177.19 7.05377 86.3398 -23.4569 15.6588 0.877332 75.7952 -9.71031 -4.49416 28.7808 1.51774e-005 2.47067e-005 0.665014 6.18782 -91.5894 14.4395 0.841472 2.26092 2.76696 0.940132 2.22172 -19.7525 0.123289 2.40923 0.260157 0.123262 2.40919 92.2951 -50.4379 -97.215 17.9426 20.22 17.6781 27.1717 28.327 -53.6194 -2.13938 -0.292275 14.3874 -97.2489 -66.9373 72.8293 -3.92037 -20.653 -3.01946 1.8156 -29.2234 -2.7949 20.5149 -2.89578 -18.2209 -5.40827 23.755 12.2687 30.7441 21.208 -2.71832 
0.955282 92.0431 -54.0707 -89.1239 -35.5309 -94.9308 -170.941 14.5334 105.214 -8.34993 5.20014 4.19403 25.935 -5.64913 -7.80993 28.7808 6.09083e-006 7.53239e-006 177.172 6.90664 86.1771 -23.5706 17.9867 1.04053 76.3711 -8.87674 -4.11495 28.7808 1.51774e-005 2.47067e-005 0.728539 6.18929 -91.6024 14.4302 0.938106 2.21983 2.75773 1.03486 2.17642 -19.7624 0.227795 2.39905 0.2502 0.22779 2.39903 91.5719 -50.863 -98.2365 18.9838 19.7254 17.2474 25.9005 26.6111 -53.7752 -0.278689 0.0278835 13.2718 -97.4121 -67.639 72.8029 -5.74903 -19.9167 -1.82293 1.77291 -32.823 -2.74238 26.0032 -4.10819 -20.2924 -6.07989 23.0711 12.1837 30.6902 20.4934 -3.23458 
1.43374 91.9741 -53.1694 -89.1608 -38.0204 -94.6455 -171.078 15.0442 105.494 -8.36017 4.35338 4.28722 24.8087 -5.84476 -8.20714 28.7808 6.09083e-006 7.53239e-006 177.132 6.86871 85.9992 -24.1249 20.5244 1.22512 76.1861 -8.0951 -3.81872 28.7808 1.51774e-005 2.47067e-005 0.786627 6.20382 -91.6727 14.395 1.01677 2.183 2.72274 1.11185 2.13615 -19.7982 0.31389 2.38755 0.214418 0.313886 2.38752 90.8091 -51.5713 -99.2462 20.2585 18.9953 14.1523 28.1019 28.8162 -54.2145 -4.2926 -0.605173 12.7815 -97.4453 -68.3534 72.9386 -6.7842 -19.4367 -0.38405 1.77062 -33.0228 -2.7395 27.8658 -3.96392 -18.6463 -6.63447 22.2664 11.856 30.5891 19.8033 -3.26354 
2.0311 91.8424 -52.2067 -89.2007 -40.6667 -94.4069 -171.236 15.5996 105.583 -8.23734 1.61294 4.1292 24.0376 -4.56045 -6.85348 28.7808 6.09083e-006 7.53239e-006 177.043 6.42014 85.6591 -24.0134 22.8669 1.40699 76.9159 -7.02383 -3.34414 28.7808 1.51774e-005 2.47067e-005 0.842087 6.22283 -91.6747 14.3518 1.0845 2.11091 2.67966 1.17632 2.06117 -19.8425 0.400147 2.33913 0.170152 0.40014 2.33913 90.0115 -52.0775 -100.331 21.2281 18.5048 14.0251 22.6185 23.9719 -52.5611 -1.093 -0.103359 13.103 -97.4254 -68.9249 73.1032 -7.37185 -19.1295 0.900034 1.75215 -34.6371 -2.7162 25.0311 -3.28494 -17.4191 -7.29786 21.3886 11.8281 30.6932 19.0508 -3.13094 
2.71208 91.7681 -51.1529 -89.2215 -43.317 -94.1297 -171.509 16.098 105.517 -8.18261 -0.0520315 4.16049 23.4266 -3.8925 -6.15418 28.7808 6.09083e-006 7.53239e-006 176.921 5.94923 85.2612 -23.8966 24.87 1.57002 77.0871 -6.11584 -2.97246 28.7808 1.51774e-005 2.47067e-005 0.91946 6.25413 -91.7037 14.2837 1.17575 1.95148 2.61187 1.26047 1.89788 -19.9128 0.535054 2.2145 0.0999102 0.535039 2.21449 89.5772 -51.9875 -101.004 22.7785 17.5251 11.6663 20.5 22.7415 -51.2083 -1.07952 -0.100904 13.0726 -98.1672 -69.7761 72.4152 -8.18992 -18.8871 0.949109 1.71295 -38.2223 -2.66528 26.7184 -3.79998 -18.5983 -8.10799 20.2597 12.7996 31.0055 17.8678 -3.43549 
3.55166 91.6417 -50.014 -89.0716 -46.0707 -93.6715 -171.782 16.7778 105.269 -8.10241 -2.1278 3.93652 23.2686 -2.77184 -4.85227 28.7808 6.09083e-006 7.53239e-006 176.782 5.5608 84.8291 -23.8018 26.7239 1.72802 77.3693 -5.0864 -2.54612 28.7808 1.51774e-005 2.47067e-005 1.00524 6.28318 -91.7376 14.2194 1.28077 1.78558 2.54798 1.3581 1.7275 -19.9792 0.685052 2.08783 0.0334578 0.685033 2.08782 89.209 -51.7316 -101.615 23.6594 16.9852 10.7336 16.8735 19.006 -50.8337 3.38212 0.714112 15.8437 -98.9274 -70.3845 71.6553 -9.27361 -18.5873 0.767904 1.70861 -38.6334 -2.65948 28.7735 -4.31864 -19.4628 -8.35748 19.1032 13.1321 30.6362 16.8238 -3.18916 
4.49496 91.5454 -48.8017 -88.9543 -48.8236 -93.116 -171.988 17.4036 104.916 -8.05013 -3.74813 3.71301 23.5762 -1.53414 -3.35989 28.7808 6.09083e-006 7.53239e-006 176.661 4.8784 84.4543 -23.3407 28.435 1.88085 77.4094 -4.18852 -2.18179 28.7808 1.51774e-005 2.47067e-005 1.08798 6.29983 -91.738 14.1822 1.39084 1.56486 2.51115 1.45835 1.50215 -20.0192 0.856345 1.91044 -0.00652527 0.856321 1.91041 88.465 -51.5313 -102.778 23.6518 17.0361 10.6403 13.4806 15.2496 -51.2153 10.213 2.22514 18.3588 -99.6249 -70.8325 70.9364 -10.1923 -18.331 0.604919 1.71867 -37.6907 -2.67279 29.3815 -4.49093 -19.7567 -9.12354 17.7919 13.5911 30.8817 15.6863 -2.86579 
5.55359 91.4152 -47.4653 -88.8619 -51.7322 -92.5337 -172.212 17.9372 104.412 -8.01001 -5.4608 3.42379 23.2654 -0.324424 -1.95644 28.7808 6.09083e-006 7.53239e-006 176.512 4.07415 84.0483 -22.9229 30.0168 2.02755 77.2344 -3.42739 -1.87593 28.7808 1.51774e-005 2.47067e-005 1.15887 6.32165 -91.752 14.1362 1.48444 1.32735 2.46545 1.5414 1.26073 -20.0679 1.01694 1.71206 -0.055267 1.01694 1.71205 87.8525 -51.3462 -103.743 23.349 17.2738 10.4083 9.56275 11.3506 -51.4348 17.3217 4.03917 20.2048 -100.128 -71.3101 70.4655 -10.6256 -18.2354 0.160646 1.73822 -35.892 -2.69832 28.1966 -4.2247 -19.4163 -8.99615 16.625 13.85 30.1602 14.5286 -2.86958 
6.72064 91.2601 -45.9802 -88.5741 -54.7708 -91.8582 -172.523 18.3848 103.67 -7.95311 -8.15615 3.03278 23.2888 1.04912 -0.315648 28.7808 6.09083e-006 7.53239e-006 176.305 3.11323 83.5226 -22.2862 31.9327 2.21071 77.104 -2.78721 -1.6191 28.7808 1.51774e-005 2.47067e-005 1.2223 6.33591 -91.7255 14.1112 1.56715 1.09818 2.44077 1.61394 1.02815 -20.0955 1.16465 1.51837 -0.0828151 1.16465 1.51835 87.4261 -51.255 -104.406 22.4882 17.9128 9.23081 8.67045 10.287 -52.037 23.8342 6.48557 24.3323 -100.848 -71.5168 69.6733 -10.9848 -18.1662 -0.395641 1.77112 -33.0288 -2.73823 26.4592 -3.83394 -18.8749 -8.55674 15.5062 13.9582 29.4276 13.3751 -2.94598 
